
<svg
  preserveAspectRatio="none" 
   xmlns="http://www.w3.org/2000/svg"
   xmlns:sodipodi="http://sodipodi.sourceforge.net/DTD/sodipodi-0.dtd"
   xmlns:inkscape="http://www.inkscape.org/namespaces/inkscape"
 
   viewBox="0 0 79.639633 66.510254"
   version="1.1"
   id="fbzugliweu"
   >
  <defs
     id="khfvxsknbt" />
 
  <g
    
     id="xsrxqapjpx"
     transform="translate(-58.453993,-80.048445)">
    <g
       id="oplbismpza"
       transform="matrix(0.6945688,0,0,-0.6945688,128.96438,111.73382)">
      <path
         d="m 0,0 c -1.248,0 -2.26,-1.012 -2.26,-2.26 0,-1.248 1.012,-2.26 2.26,-2.26 1.248,0 2.26,1.012 2.26,2.26 C 2.26,-1.012 1.248,0 0,0"
         style="fill:#fd6440;fill-opacity:1;fill-rule:nonzero;stroke:none"
         id="kzjbwvokkz"
          />
    </g>
    <g
       id="gnmrylvdiy"
       transform="matrix(0.6945688,0,0,-0.6945688,123.38415,106.65955)">
      <path
         d="m 0,0 c -1.248,0 -2.259,-1.012 -2.259,-2.26 0,-1.248 1.011,-2.26 2.259,-2.26 1.248,0 2.26,1.012 2.26,2.26 C 2.26,-1.012 1.248,0 0,0"
         style="fill:#fd6440;fill-opacity:1;fill-rule:nonzero;stroke:none"
         id="lofduiubzw"
          />
    </g>
    <g
       id="rbgjarnbcy"
       transform="matrix(0.6945688,0,0,-0.6945688,123.38415,111.73382)">
      <path
         d="m 0,0 c -1.248,0 -2.259,-1.012 -2.259,-2.26 0,-1.248 1.011,-2.26 2.259,-2.26 1.248,0 2.26,1.012 2.26,2.26 C 2.26,-1.012 1.248,0 0,0"
         style="fill:#fd6440;fill-opacity:1;fill-rule:nonzero;stroke:none"
         id="wktajrsrwz"
          />
    </g>
    <g
       id="lvgjtjdxsl"
       transform="matrix(0.6945688,0,0,-0.6945688,123.38415,116.8081)">
      <path
         d="m 0,0 c -1.248,0 -2.259,-1.012 -2.259,-2.26 0,-1.248 1.011,-2.26 2.259,-2.26 1.248,0 2.26,1.012 2.26,2.26 C 2.26,-1.012 1.248,0 0,0"
         style="fill:#fd6440;fill-opacity:1;fill-rule:nonzero;stroke:none"
         id="ajvckqhzus"
          />
    </g>
    <g
       id="fmgiwkkzqc"
       transform="matrix(0.6945688,0,0,-0.6945688,117.80455,101.58525)">
      <path
         d="m 0,0 c -1.248,0 -2.26,-1.012 -2.26,-2.26 0,-1.247 1.012,-2.259 2.26,-2.259 1.247,0 2.259,1.012 2.259,2.259 C 2.259,-1.012 1.247,0 0,0"
         style="fill:#fd6440;fill-opacity:1;fill-rule:nonzero;stroke:none"
         id="lqkscxjdyl"
          />
    </g>
    <g
       id="djxdlenncg"
       transform="matrix(0.6945688,0,0,-0.6945688,117.80455,106.65955)">
      <path
         d="m 0,0 c -1.248,0 -2.26,-1.012 -2.26,-2.26 0,-1.248 1.012,-2.26 2.26,-2.26 1.247,0 2.259,1.012 2.259,2.26 C 2.259,-1.012 1.247,0 0,0"
         style="fill:#fd6440;fill-opacity:1;fill-rule:nonzero;stroke:none"
         id="mwrpguucak"
          />
    </g>
    <g
       id="kozngjucij"
       transform="matrix(0.6945688,0,0,-0.6945688,117.80455,111.73382)">
      <path
         d="m 0,0 c -1.248,0 -2.26,-1.012 -2.26,-2.26 0,-1.248 1.012,-2.26 2.26,-2.26 1.247,0 2.259,1.012 2.259,2.26 C 2.259,-1.012 1.247,0 0,0"
         style="fill:#fd6440;fill-opacity:1;fill-rule:nonzero;stroke:none"
         id="fxdmapxsxi"
          />
    </g>
    <g
       id="wnayqhfjmr"
       transform="matrix(0.6945688,0,0,-0.6945688,117.80455,116.8081)">
      <path
         d="m 0,0 c -1.248,0 -2.26,-1.012 -2.26,-2.26 0,-1.248 1.012,-2.26 2.26,-2.26 1.247,0 2.259,1.012 2.259,2.26 C 2.259,-1.012 1.247,0 0,0"
         style="fill:#fd6440;fill-opacity:1;fill-rule:nonzero;stroke:none"
         id="qedzstzvsk"
          />
    </g>
    <g
       id="cegzhrduvx"
       transform="matrix(0.6945688,0,0,-0.6945688,117.80455,121.88306)">
      <path
         d="m 0,0 c -1.248,0 -2.26,-1.012 -2.26,-2.259 0,-1.248 1.012,-2.26 2.26,-2.26 1.247,0 2.259,1.012 2.259,2.26 C 2.259,-1.012 1.247,0 0,0"
         style="fill:#fd6440;fill-opacity:1;fill-rule:nonzero;stroke:none"
         id="tscplngtsm"
          />
    </g>
    <g
       id="hbocfjxnpa"
       transform="matrix(0.6945688,0,0,-0.6945688,112.22424,96.510937)">
      <path
         d="m 0,0 c -1.248,0 -2.26,-1.012 -2.26,-2.259 0,-1.248 1.012,-2.26 2.26,-2.26 1.248,0 2.26,1.012 2.26,2.26 C 2.26,-1.012 1.248,0 0,0"
         style="fill:#fd6440;fill-opacity:1;fill-rule:nonzero;stroke:none"
         id="wlmeekqdhy"
          />
    </g>
    <g
       id="icvfdpgtwk"
       transform="matrix(0.6945688,0,0,-0.6945688,112.22424,101.58525)">
      <path
         d="m 0,0 c -1.248,0 -2.26,-1.012 -2.26,-2.26 0,-1.247 1.012,-2.259 2.26,-2.259 1.248,0 2.26,1.012 2.26,2.259 C 2.26,-1.012 1.248,0 0,0"
         style="fill:#fd6440;fill-opacity:1;fill-rule:nonzero;stroke:none"
         id="awguaxgumn"
          />
    </g>
    <g
       id="somjfccdyq"
       transform="matrix(0.6945688,0,0,-0.6945688,112.22424,106.65955)">
      <path
         d="m 0,0 c -1.248,0 -2.26,-1.012 -2.26,-2.26 0,-1.248 1.012,-2.26 2.26,-2.26 1.248,0 2.26,1.012 2.26,2.26 C 2.26,-1.012 1.248,0 0,0"
         style="fill:#fd6440;fill-opacity:1;fill-rule:nonzero;stroke:none"
         id="wqcuryinzp"
          />
    </g>
    <g
       id="rfdjuzljpt"
       transform="matrix(0.6945688,0,0,-0.6945688,112.22424,111.73382)">
      <path
         d="m 0,0 c -1.248,0 -2.26,-1.012 -2.26,-2.26 0,-1.248 1.012,-2.26 2.26,-2.26 1.248,0 2.26,1.012 2.26,2.26 C 2.26,-1.012 1.248,0 0,0"
         style="fill:#fd6440;fill-opacity:1;fill-rule:nonzero;stroke:none"
         id="wtdgtidrto"
          />
    </g>
    <g
       id="sbjfhcminx"
       transform="matrix(0.6945688,0,0,-0.6945688,112.22424,116.8081)">
      <path
         d="m 0,0 c -1.248,0 -2.26,-1.012 -2.26,-2.26 0,-1.248 1.012,-2.26 2.26,-2.26 1.248,0 2.26,1.012 2.26,2.26 C 2.26,-1.012 1.248,0 0,0"
         style="fill:#fd6440;fill-opacity:1;fill-rule:nonzero;stroke:none"
         id="cpnwsvypcy"
          />
    </g>
    <g
       id="uydhjwomwd"
       transform="matrix(0.6945688,0,0,-0.6945688,112.22424,121.88306)">
      <path
         d="m 0,0 c -1.248,0 -2.26,-1.012 -2.26,-2.259 0,-1.248 1.012,-2.26 2.26,-2.26 1.248,0 2.26,1.012 2.26,2.26 C 2.26,-1.012 1.248,0 0,0"
         style="fill:#fd6440;fill-opacity:1;fill-rule:nonzero;stroke:none"
         id="istxuiyylc"
          />
    </g>
    <g
       id="gdlrmcswxh"
       transform="matrix(0.6945688,0,0,-0.6945688,112.22424,126.95738)">
      <path
         d="m 0,0 c -1.248,0 -2.26,-1.012 -2.26,-2.26 0,-1.248 1.012,-2.259 2.26,-2.259 1.248,0 2.26,1.011 2.26,2.259 C 2.26,-1.012 1.248,0 0,0"
         style="fill:#fd6440;fill-opacity:1;fill-rule:nonzero;stroke:none"
         id="gfkbpbddhj"
          />
    </g>
    <g
       id="dddsjcjldq"
       transform="matrix(0.6945688,0,0,-0.6945688,106.64393,91.436013)">
      <path
         d="m 0,0 c -1.248,0 -2.26,-1.012 -2.26,-2.26 0,-1.248 1.012,-2.26 2.26,-2.26 1.248,0 2.26,1.012 2.26,2.26 C 2.26,-1.012 1.248,0 0,0"
         style="fill:#fd6440;fill-opacity:1;fill-rule:nonzero;stroke:none"
         id="xcqqhfpwkl"
          />
    </g>
    <g
       id="ehexybtqxp"
       transform="matrix(0.6945688,0,0,-0.6945688,106.64393,96.510937)">
      <path
         d="m 0,0 c -1.248,0 -2.26,-1.012 -2.26,-2.259 0,-1.248 1.012,-2.26 2.26,-2.26 1.248,0 2.26,1.012 2.26,2.26 C 2.26,-1.012 1.248,0 0,0"
         style="fill:#fd6440;fill-opacity:1;fill-rule:nonzero;stroke:none"
         id="goopafoidh"
          />
    </g>
    <g
       id="bjxsgdngpr"
       transform="matrix(0.6945688,0,0,-0.6945688,106.64393,101.58525)">
      <path
         d="m 0,0 c -1.248,0 -2.26,-1.012 -2.26,-2.26 0,-1.247 1.012,-2.259 2.26,-2.259 1.248,0 2.26,1.012 2.26,2.259 C 2.26,-1.012 1.248,0 0,0"
         style="fill:#fd6440;fill-opacity:1;fill-rule:nonzero;stroke:none"
         id="vauerelxgo"
          />
    </g>
    <g
       id="ohcocmojza"
       transform="matrix(0.6945688,0,0,-0.6945688,106.64393,106.65955)">
      <path
         d="m 0,0 c -1.248,0 -2.26,-1.012 -2.26,-2.26 0,-1.248 1.012,-2.26 2.26,-2.26 1.248,0 2.26,1.012 2.26,2.26 C 2.26,-1.012 1.248,0 0,0"
         style="fill:#fd6440;fill-opacity:1;fill-rule:nonzero;stroke:none"
         id="eeljzbdkzr"
          />
    </g>
    <g
       id="ylvqikvkwp"
       transform="matrix(0.6945688,0,0,-0.6945688,106.64393,111.73382)">
      <path
         d="m 0,0 c -1.248,0 -2.26,-1.012 -2.26,-2.26 0,-1.248 1.012,-2.26 2.26,-2.26 1.248,0 2.26,1.012 2.26,2.26 C 2.26,-1.012 1.248,0 0,0"
         style="fill:#fd6440;fill-opacity:1;fill-rule:nonzero;stroke:none"
         id="sniwymsyth"
          />
    </g>
    <g
       id="ligqsoambo"
       transform="matrix(0.6945688,0,0,-0.6945688,106.64393,116.8081)">
      <path
         d="m 0,0 c -1.248,0 -2.26,-1.012 -2.26,-2.26 0,-1.248 1.012,-2.26 2.26,-2.26 1.248,0 2.26,1.012 2.26,2.26 C 2.26,-1.012 1.248,0 0,0"
         style="fill:#fd6440;fill-opacity:1;fill-rule:nonzero;stroke:none"
         id="cwfsthmsjv"
          />
    </g>
    <g
       id="gwnileesig"
       transform="matrix(0.6945688,0,0,-0.6945688,106.64393,121.88306)">
      <path
         d="m 0,0 c -1.248,0 -2.26,-1.012 -2.26,-2.259 0,-1.248 1.012,-2.26 2.26,-2.26 1.248,0 2.26,1.012 2.26,2.26 C 2.26,-1.012 1.248,0 0,0"
         style="fill:#fd6440;fill-opacity:1;fill-rule:nonzero;stroke:none"
         id="dasotcslok"
          />
    </g>
    <g
       id="rwacbwucwl"
       transform="matrix(0.6945688,0,0,-0.6945688,106.64393,126.95738)">
      <path
         d="m 0,0 c -1.248,0 -2.26,-1.012 -2.26,-2.26 0,-1.248 1.012,-2.259 2.26,-2.259 1.248,0 2.26,1.011 2.26,2.259 C 2.26,-1.012 1.248,0 0,0"
         style="fill:#fd6440;fill-opacity:1;fill-rule:nonzero;stroke:none"
         id="npjujovyxz"
          />
    </g>
    <g
       id="qsvwmsqcri"
       transform="matrix(0.6945688,0,0,-0.6945688,106.64393,132.03169)">
      <path
         d="m 0,0 c -1.248,0 -2.26,-1.012 -2.26,-2.26 0,-1.248 1.012,-2.26 2.26,-2.26 1.248,0 2.26,1.012 2.26,2.26 C 2.26,-1.012 1.248,0 0,0"
         style="fill:#fd6440;fill-opacity:1;fill-rule:nonzero;stroke:none"
         id="dnvgcvuxie"
          />
    </g>
    <g
       id="lsydmumbut"
       transform="matrix(0.6945688,0,0,-0.6945688,101.06361,86.361706)">
      <path
         d="m 0,0 c -1.248,0 -2.26,-1.012 -2.26,-2.26 0,-1.248 1.012,-2.26 2.26,-2.26 1.248,0 2.26,1.012 2.26,2.26 C 2.26,-1.012 1.248,0 0,0"
         style="fill:#fd6440;fill-opacity:1;fill-rule:nonzero;stroke:none"
         id="wesqeykdco"
          />
    </g>
    <g
       id="trfnjqmtbw"
       transform="matrix(0.6945688,0,0,-0.6945688,101.06361,91.436013)">
      <path
         d="m 0,0 c -1.248,0 -2.26,-1.012 -2.26,-2.26 0,-1.248 1.012,-2.26 2.26,-2.26 1.248,0 2.26,1.012 2.26,2.26 C 2.26,-1.012 1.248,0 0,0"
         style="fill:#fd6440;fill-opacity:1;fill-rule:nonzero;stroke:none"
         id="szaeggjflj"
          />
    </g>
    <g
       id="rtmgweblqt"
       transform="matrix(0.6945688,0,0,-0.6945688,101.06361,96.510937)">
      <path
         d="m 0,0 c -1.248,0 -2.26,-1.012 -2.26,-2.259 0,-1.248 1.012,-2.26 2.26,-2.26 1.248,0 2.26,1.012 2.26,2.26 C 2.26,-1.012 1.248,0 0,0"
         style="fill:#fd6440;fill-opacity:1;fill-rule:nonzero;stroke:none"
         id="gdnhudlivc"
          />
    </g>
    <g
       id="jintmvijqd"
       transform="matrix(0.6945688,0,0,-0.6945688,101.06361,101.58525)">
      <path
         d="m 0,0 c -1.248,0 -2.26,-1.012 -2.26,-2.26 0,-1.247 1.012,-2.259 2.26,-2.259 1.248,0 2.26,1.012 2.26,2.259 C 2.26,-1.012 1.248,0 0,0"
         style="fill:#fd6440;fill-opacity:1;fill-rule:nonzero;stroke:none"
         id="vcpmavymsk"
          />
    </g>
    <g
       id="ncbnuvvkbx"
       transform="matrix(0.6945688,0,0,-0.6945688,101.06361,106.65955)">
      <path
         d="m 0,0 c -1.248,0 -2.26,-1.012 -2.26,-2.26 0,-1.248 1.012,-2.26 2.26,-2.26 1.248,0 2.26,1.012 2.26,2.26 C 2.26,-1.012 1.248,0 0,0"
         style="fill:#fd6440;fill-opacity:1;fill-rule:nonzero;stroke:none"
         id="ndoteyewfm"
          />
    </g>
    <g
       id="giqvyuvhus"
       transform="matrix(0.6945688,0,0,-0.6945688,101.06361,111.73382)">
      <path
         d="m 0,0 c -1.248,0 -2.26,-1.012 -2.26,-2.26 0,-1.248 1.012,-2.26 2.26,-2.26 1.248,0 2.26,1.012 2.26,2.26 C 2.26,-1.012 1.248,0 0,0"
         style="fill:#fd6440;fill-opacity:1;fill-rule:nonzero;stroke:none"
         id="daagjonoln"
          />
    </g>
    <g
       id="dbwqjjlgpi"
       transform="matrix(0.6945688,0,0,-0.6945688,101.06361,116.8081)">
      <path
         d="m 0,0 c -1.248,0 -2.26,-1.012 -2.26,-2.26 0,-1.248 1.012,-2.26 2.26,-2.26 1.248,0 2.26,1.012 2.26,2.26 C 2.26,-1.012 1.248,0 0,0"
         style="fill:#fd6440;fill-opacity:1;fill-rule:nonzero;stroke:none"
         id="cbujfysagh"
          />
    </g>
    <g
       id="psrftgincy"
       transform="matrix(0.6945688,0,0,-0.6945688,101.06361,121.88306)">
      <path
         d="m 0,0 c -1.248,0 -2.26,-1.012 -2.26,-2.259 0,-1.248 1.012,-2.26 2.26,-2.26 1.248,0 2.26,1.012 2.26,2.26 C 2.26,-1.012 1.248,0 0,0"
         style="fill:#fd6440;fill-opacity:1;fill-rule:nonzero;stroke:none"
         id="bdohqzbngx"
          />
    </g>
    <g
       id="ihdxzveiox"
       transform="matrix(0.6945688,0,0,-0.6945688,101.06361,126.95738)">
      <path
         d="m 0,0 c -1.248,0 -2.26,-1.012 -2.26,-2.26 0,-1.248 1.012,-2.259 2.26,-2.259 1.248,0 2.26,1.011 2.26,2.259 C 2.26,-1.012 1.248,0 0,0"
         style="fill:#fd6440;fill-opacity:1;fill-rule:nonzero;stroke:none"
         id="lnevvftoky"
          />
    </g>
    <g
       id="ehstawxbpd"
       transform="matrix(0.6945688,0,0,-0.6945688,101.06361,132.03169)">
      <path
         d="m 0,0 c -1.248,0 -2.26,-1.012 -2.26,-2.26 0,-1.248 1.012,-2.26 2.26,-2.26 1.248,0 2.26,1.012 2.26,2.26 C 2.26,-1.012 1.248,0 0,0"
         style="fill:#fd6440;fill-opacity:1;fill-rule:nonzero;stroke:none"
         id="cpijmrkrwu"
          />
    </g>
    <g
       id="jxtktntiqz"
       transform="matrix(0.6945688,0,0,-0.6945688,101.06361,137.10598)">
      <path
         d="m 0,0 c -1.248,0 -2.26,-1.012 -2.26,-2.26 0,-1.248 1.012,-2.26 2.26,-2.26 1.248,0 2.26,1.012 2.26,2.26 C 2.26,-1.012 1.248,0 0,0"
         style="fill:#fd6440;fill-opacity:1;fill-rule:nonzero;stroke:none"
         id="inthlxjlvd"
          />
    </g>
    <g
       id="cajqbcomnx"
       transform="matrix(0.6945688,0,0,-0.6945688,95.483318,96.510937)">
      <path
         d="m 0,0 c -1.247,0 -2.259,-1.012 -2.259,-2.259 0,-1.248 1.012,-2.26 2.259,-2.26 1.248,0 2.26,1.012 2.26,2.26 C 2.26,-1.012 1.248,0 0,0"
         style="fill:#fd6440;fill-opacity:1;fill-rule:nonzero;stroke:none"
         id="avblqpajiy"
          />
    </g>
    <g
       id="ifcdmthhgj"
       transform="matrix(0.6945688,0,0,-0.6945688,95.483318,101.58525)">
      <path
         d="m 0,0 c -1.247,0 -2.259,-1.012 -2.259,-2.26 0,-1.247 1.012,-2.259 2.259,-2.259 1.248,0 2.26,1.012 2.26,2.259 C 2.26,-1.012 1.248,0 0,0"
         style="fill:#fd6440;fill-opacity:1;fill-rule:nonzero;stroke:none"
         id="thyxzomvwk"
          />
    </g>
    <g
       id="xotlrbllom"
       transform="matrix(0.6945688,0,0,-0.6945688,95.483318,106.65955)">
      <path
         d="m 0,0 c -1.247,0 -2.259,-1.012 -2.259,-2.26 0,-1.248 1.012,-2.26 2.259,-2.26 1.248,0 2.26,1.012 2.26,2.26 C 2.26,-1.012 1.248,0 0,0"
         style="fill:#fd6440;fill-opacity:1;fill-rule:nonzero;stroke:none"
         id="chfsclrhww"
          />
    </g>
    <g
       id="oeibbczees"
       transform="matrix(0.6945688,0,0,-0.6945688,95.483318,111.73382)">
      <path
         d="m 0,0 c -1.247,0 -2.259,-1.012 -2.259,-2.26 0,-1.248 1.012,-2.26 2.259,-2.26 1.248,0 2.26,1.012 2.26,2.26 C 2.26,-1.012 1.248,0 0,0"
         style="fill:#fd6440;fill-opacity:1;fill-rule:nonzero;stroke:none"
         id="gtrjpddfkh"
          />
    </g>
    <g
       id="indamyljls"
       transform="matrix(0.6945688,0,0,-0.6945688,95.483318,116.8081)">
      <path
         d="m 0,0 c -1.247,0 -2.259,-1.012 -2.259,-2.26 0,-1.248 1.012,-2.26 2.259,-2.26 1.248,0 2.26,1.012 2.26,2.26 C 2.26,-1.012 1.248,0 0,0"
         style="fill:#fd6440;fill-opacity:1;fill-rule:nonzero;stroke:none"
         id="upphnhoxbc"
          />
    </g>
    <g
       id="llzfaxwuuo"
       transform="matrix(0.6945688,0,0,-0.6945688,95.483318,121.88306)">
      <path
         d="m 0,0 c -1.247,0 -2.259,-1.012 -2.259,-2.259 0,-1.248 1.012,-2.26 2.259,-2.26 1.248,0 2.26,1.012 2.26,2.26 C 2.26,-1.012 1.248,0 0,0"
         style="fill:#fd6440;fill-opacity:1;fill-rule:nonzero;stroke:none"
         id="nagfvbfbpu"
          />
    </g>
    <g
       id="jvuubugson"
       transform="matrix(0.6945688,0,0,-0.6945688,95.483318,126.95738)">
      <path
         d="m 0,0 c -1.247,0 -2.259,-1.012 -2.259,-2.26 0,-1.248 1.012,-2.259 2.259,-2.259 1.248,0 2.26,1.011 2.26,2.259 C 2.26,-1.012 1.248,0 0,0"
         style="fill:#fd6440;fill-opacity:1;fill-rule:nonzero;stroke:none"
         id="jbmthmrpfa"
          />
    </g>
    <g
       id="dhdhvzkefo"
       transform="matrix(0.6945688,0,0,-0.6945688,89.903696,96.510937)">
      <path
         d="m 0,0 c -1.248,0 -2.26,-1.012 -2.26,-2.259 0,-1.248 1.012,-2.26 2.26,-2.26 1.248,0 2.259,1.012 2.259,2.26 C 2.259,-1.012 1.248,0 0,0"
         style="fill:#fd6440;fill-opacity:1;fill-rule:nonzero;stroke:none"
         id="wbagofydyn"
          />
    </g>
    <g
       id="dfokybyvij"
       transform="matrix(0.6945688,0,0,-0.6945688,89.903696,101.58525)">
      <path
         d="m 0,0 c -1.248,0 -2.26,-1.012 -2.26,-2.26 0,-1.247 1.012,-2.259 2.26,-2.259 1.248,0 2.259,1.012 2.259,2.259 C 2.259,-1.012 1.248,0 0,0"
         style="fill:#fd6440;fill-opacity:1;fill-rule:nonzero;stroke:none"
         id="jhuysnbyws"
          />
    </g>
    <g
       id="bczlqpbahe"
       transform="matrix(0.6945688,0,0,-0.6945688,89.903696,106.65955)">
      <path
         d="m 0,0 c -1.248,0 -2.26,-1.012 -2.26,-2.26 0,-1.248 1.012,-2.26 2.26,-2.26 1.248,0 2.259,1.012 2.259,2.26 C 2.259,-1.012 1.248,0 0,0"
         style="fill:#fd6440;fill-opacity:1;fill-rule:nonzero;stroke:none"
         id="lwwevvzwvx"
          />
    </g>
    <g
       id="imzrsigobc"
       transform="matrix(0.6945688,0,0,-0.6945688,89.903696,111.73382)">
      <path
         d="m 0,0 c -1.248,0 -2.26,-1.012 -2.26,-2.26 0,-1.248 1.012,-2.26 2.26,-2.26 1.248,0 2.259,1.012 2.259,2.26 C 2.259,-1.012 1.248,0 0,0"
         style="fill:#fd6440;fill-opacity:1;fill-rule:nonzero;stroke:none"
         id="zoatghwpow"
          />
    </g>
    <g
       id="ycyzoerqfu"
       transform="matrix(0.6945688,0,0,-0.6945688,89.903696,116.8081)">
      <path
         d="m 0,0 c -1.248,0 -2.26,-1.012 -2.26,-2.26 0,-1.248 1.012,-2.26 2.26,-2.26 1.248,0 2.259,1.012 2.259,2.26 C 2.259,-1.012 1.248,0 0,0"
         style="fill:#fd6440;fill-opacity:1;fill-rule:nonzero;stroke:none"
         id="emvpdknvxz"
          />
    </g>
    <g
       id="bkquysgrew"
       transform="matrix(0.6945688,0,0,-0.6945688,89.903696,121.88306)">
      <path
         d="m 0,0 c -1.248,0 -2.26,-1.012 -2.26,-2.259 0,-1.248 1.012,-2.26 2.26,-2.26 1.248,0 2.259,1.012 2.259,2.26 C 2.259,-1.012 1.248,0 0,0"
         style="fill:#fd6440;fill-opacity:1;fill-rule:nonzero;stroke:none"
         id="wfdifndpod"
          />
    </g>
    <g
       id="hoxueionmh"
       transform="matrix(0.6945688,0,0,-0.6945688,89.903696,126.95738)">
      <path
         d="m 0,0 c -1.248,0 -2.26,-1.012 -2.26,-2.26 0,-1.248 1.012,-2.259 2.26,-2.259 1.248,0 2.259,1.011 2.259,2.259 C 2.259,-1.012 1.248,0 0,0"
         style="fill:#fd6440;fill-opacity:1;fill-rule:nonzero;stroke:none"
         id="sjmglpkvfd"
          />
    </g>
    <g
       id="kyhrfasfpa"
       transform="matrix(0.6945688,0,0,-0.6945688,84.323464,96.510937)">
      <path
         d="m 0,0 c -1.248,0 -2.26,-1.012 -2.26,-2.259 0,-1.248 1.012,-2.26 2.26,-2.26 1.248,0 2.26,1.012 2.26,2.26 C 2.26,-1.012 1.248,0 0,0"
         style="fill:#fd6440;fill-opacity:1;fill-rule:nonzero;stroke:none"
         id="jcylelsphd"
          />
    </g>
    <g
       id="asuehqlmow"
       transform="matrix(0.6945688,0,0,-0.6945688,84.323464,101.58525)">
      <path
         d="m 0,0 c -1.248,0 -2.26,-1.012 -2.26,-2.26 0,-1.247 1.012,-2.259 2.26,-2.259 1.248,0 2.26,1.012 2.26,2.259 C 2.26,-1.012 1.248,0 0,0"
         style="fill:#fd6440;fill-opacity:1;fill-rule:nonzero;stroke:none"
         id="mahuwfghbj"
          />
    </g>
    <g
       id="jnymdeasak"
       transform="matrix(0.6945688,0,0,-0.6945688,84.323464,106.65955)">
      <path
         d="m 0,0 c -1.248,0 -2.26,-1.012 -2.26,-2.26 0,-1.248 1.012,-2.26 2.26,-2.26 1.248,0 2.26,1.012 2.26,2.26 C 2.26,-1.012 1.248,0 0,0"
         style="fill:#fd6440;fill-opacity:1;fill-rule:nonzero;stroke:none"
         id="pverytcsbv"
          />
    </g>
    <g
       id="bqtyxiaugy"
       transform="matrix(0.6945688,0,0,-0.6945688,84.323464,111.73382)">
      <path
         d="m 0,0 c -1.248,0 -2.26,-1.012 -2.26,-2.26 0,-1.248 1.012,-2.26 2.26,-2.26 1.248,0 2.26,1.012 2.26,2.26 C 2.26,-1.012 1.248,0 0,0"
         style="fill:#fd6440;fill-opacity:1;fill-rule:nonzero;stroke:none"
         id="ulqbtqgicv"
          />
    </g>
    <g
       id="thezirpfkk"
       transform="matrix(0.6945688,0,0,-0.6945688,84.323464,116.8081)">
      <path
         d="m 0,0 c -1.248,0 -2.26,-1.012 -2.26,-2.26 0,-1.248 1.012,-2.26 2.26,-2.26 1.248,0 2.26,1.012 2.26,2.26 C 2.26,-1.012 1.248,0 0,0"
         style="fill:#fd6440;fill-opacity:1;fill-rule:nonzero;stroke:none"
         id="lwafkbmybo"
          />
    </g>
    <g
       id="dqqzyajkzj"
       transform="matrix(0.6945688,0,0,-0.6945688,84.323464,121.88306)">
      <path
         d="m 0,0 c -1.248,0 -2.26,-1.012 -2.26,-2.259 0,-1.248 1.012,-2.26 2.26,-2.26 1.248,0 2.26,1.012 2.26,2.26 C 2.26,-1.012 1.248,0 0,0"
         style="fill:#fd6440;fill-opacity:1;fill-rule:nonzero;stroke:none"
         id="ovmefvbwbb"
          />
    </g>
    <g
       id="hgxlzywjug"
       transform="matrix(0.6945688,0,0,-0.6945688,84.323464,126.95738)">
      <path
         d="m 0,0 c -1.248,0 -2.26,-1.012 -2.26,-2.26 0,-1.248 1.012,-2.259 2.26,-2.259 1.248,0 2.26,1.011 2.26,2.259 C 2.26,-1.012 1.248,0 0,0"
         style="fill:#fd6440;fill-opacity:1;fill-rule:nonzero;stroke:none"
         id="dzdsdpafqg"
          />
    </g>
    <g
       id="lxthbvqmio"
       transform="matrix(0.6945688,0,0,-0.6945688,78.743154,96.510937)">
      <path
         d="m 0,0 c -1.248,0 -2.26,-1.012 -2.26,-2.259 0,-1.248 1.012,-2.26 2.26,-2.26 1.248,0 2.26,1.012 2.26,2.26 C 2.26,-1.012 1.248,0 0,0"
         style="fill:#fd6440;fill-opacity:1;fill-rule:nonzero;stroke:none"
         id="szjpcuhvwt"
          />
    </g>
    <g
       id="kzzhcrzpzi"
       transform="matrix(0.6945688,0,0,-0.6945688,78.743154,101.58525)">
      <path
         d="m 0,0 c -1.248,0 -2.26,-1.012 -2.26,-2.26 0,-1.247 1.012,-2.259 2.26,-2.259 1.248,0 2.26,1.012 2.26,2.259 C 2.26,-1.012 1.248,0 0,0"
         style="fill:#fd6440;fill-opacity:1;fill-rule:nonzero;stroke:none"
         id="xslzmxydob"
          />
    </g>
    <g
       id="iyoqwhhkit"
       transform="matrix(0.6945688,0,0,-0.6945688,78.743154,106.65955)">
      <path
         d="m 0,0 c -1.248,0 -2.26,-1.012 -2.26,-2.26 0,-1.248 1.012,-2.26 2.26,-2.26 1.248,0 2.26,1.012 2.26,2.26 C 2.26,-1.012 1.248,0 0,0"
         style="fill:#fd6440;fill-opacity:1;fill-rule:nonzero;stroke:none"
         id="bumyixcidc"
          />
    </g>
    <g
       id="mowalncovm"
       transform="matrix(0.6945688,0,0,-0.6945688,78.743154,111.73382)">
      <path
         d="m 0,0 c -1.248,0 -2.26,-1.012 -2.26,-2.26 0,-1.248 1.012,-2.26 2.26,-2.26 1.248,0 2.26,1.012 2.26,2.26 C 2.26,-1.012 1.248,0 0,0"
         style="fill:#fd6440;fill-opacity:1;fill-rule:nonzero;stroke:none"
         id="kwuuzufpbb"
          />
    </g>
    <g
       id="rsgknyybng"
       transform="matrix(0.6945688,0,0,-0.6945688,78.743154,116.8081)">
      <path
         d="m 0,0 c -1.248,0 -2.26,-1.012 -2.26,-2.26 0,-1.248 1.012,-2.26 2.26,-2.26 1.248,0 2.26,1.012 2.26,2.26 C 2.26,-1.012 1.248,0 0,0"
         style="fill:#fd6440;fill-opacity:1;fill-rule:nonzero;stroke:none"
         id="gmujsgistn"
          />
    </g>
    <g
       id="habmvamixt"
       transform="matrix(0.6945688,0,0,-0.6945688,78.743154,121.88306)">
      <path
         d="m 0,0 c -1.248,0 -2.26,-1.012 -2.26,-2.259 0,-1.248 1.012,-2.26 2.26,-2.26 1.248,0 2.26,1.012 2.26,2.26 C 2.26,-1.012 1.248,0 0,0"
         style="fill:#fd6440;fill-opacity:1;fill-rule:nonzero;stroke:none"
         id="jwonexwizd"
          />
    </g>
    <g
       id="nedaafwjtw"
       transform="matrix(0.6945688,0,0,-0.6945688,78.743154,126.95738)">
      <path
         d="m 0,0 c -1.248,0 -2.26,-1.012 -2.26,-2.26 0,-1.248 1.012,-2.259 2.26,-2.259 1.248,0 2.26,1.011 2.26,2.259 C 2.26,-1.012 1.248,0 0,0"
         style="fill:#fd6440;fill-opacity:1;fill-rule:nonzero;stroke:none"
         id="yotaemsykc"
          />
    </g>
    <g
       id="vfvwswsisv"
       transform="matrix(0.6945688,0,0,-0.6945688,73.162864,96.510937)">
      <path
         d="m 0,0 c -1.248,0 -2.259,-1.012 -2.259,-2.259 0,-1.248 1.011,-2.26 2.259,-2.26 1.248,0 2.26,1.012 2.26,2.26 C 2.26,-1.012 1.248,0 0,0"
         style="fill:#fd6440;fill-opacity:1;fill-rule:nonzero;stroke:none"
         id="ralsehspvm"
          />
    </g>
    <g
       id="jjurqeipqd"
       transform="matrix(0.6945688,0,0,-0.6945688,73.162864,101.58525)">
      <path
         d="m 0,0 c -1.248,0 -2.259,-1.012 -2.259,-2.26 0,-1.247 1.011,-2.259 2.259,-2.259 1.248,0 2.26,1.012 2.26,2.259 C 2.26,-1.012 1.248,0 0,0"
         style="fill:#fd6440;fill-opacity:1;fill-rule:nonzero;stroke:none"
         id="fpawkfkmvm"
          />
    </g>
    <g
       id="wwjudjplar"
       transform="matrix(0.6945688,0,0,-0.6945688,73.162864,106.65955)">
      <path
         d="m 0,0 c -1.248,0 -2.259,-1.012 -2.259,-2.26 0,-1.248 1.011,-2.26 2.259,-2.26 1.248,0 2.26,1.012 2.26,2.26 C 2.26,-1.012 1.248,0 0,0"
         style="fill:#fd6440;fill-opacity:1;fill-rule:nonzero;stroke:none"
         id="hvnliebrvn"
          />
    </g>
    <g
       id="ygfvehukvo"
       transform="matrix(0.6945688,0,0,-0.6945688,73.162864,111.73382)">
      <path
         d="m 0,0 c -1.248,0 -2.259,-1.012 -2.259,-2.26 0,-1.248 1.011,-2.26 2.259,-2.26 1.248,0 2.26,1.012 2.26,2.26 C 2.26,-1.012 1.248,0 0,0"
         style="fill:#fd6440;fill-opacity:1;fill-rule:nonzero;stroke:none"
         id="jjjyknrkzj"
          />
    </g>
    <g
       id="kflbygxqdb"
       transform="matrix(0.6945688,0,0,-0.6945688,73.162864,116.8081)">
      <path
         d="m 0,0 c -1.248,0 -2.259,-1.012 -2.259,-2.26 0,-1.248 1.011,-2.26 2.259,-2.26 1.248,0 2.26,1.012 2.26,2.26 C 2.26,-1.012 1.248,0 0,0"
         style="fill:#fd6440;fill-opacity:1;fill-rule:nonzero;stroke:none"
         id="cbchannglh"
          />
    </g>
    <g
       id="hxeckqfpkb"
       transform="matrix(0.6945688,0,0,-0.6945688,73.162864,121.88306)">
      <path
         d="m 0,0 c -1.248,0 -2.259,-1.012 -2.259,-2.259 0,-1.248 1.011,-2.26 2.259,-2.26 1.248,0 2.26,1.012 2.26,2.26 C 2.26,-1.012 1.248,0 0,0"
         style="fill:#fd6440;fill-opacity:1;fill-rule:nonzero;stroke:none"
         id="glybntpiml"
          />
    </g>
    <g
       id="fqasamyojk"
       transform="matrix(0.6945688,0,0,-0.6945688,73.162864,126.95738)">
      <path
         d="m 0,0 c -1.248,0 -2.259,-1.012 -2.259,-2.26 0,-1.248 1.011,-2.259 2.259,-2.259 1.248,0 2.26,1.011 2.26,2.259 C 2.26,-1.012 1.248,0 0,0"
         style="fill:#fd6440;fill-opacity:1;fill-rule:nonzero;stroke:none"
         id="oxzoheyybj"
          />
    </g>
    <g
       id="zezuhftluo"
       transform="matrix(0.6945688,0,0,-0.6945688,67.583243,96.510937)">
      <path
         d="m 0,0 c -1.248,0 -2.26,-1.012 -2.26,-2.259 0,-1.248 1.012,-2.26 2.26,-2.26 1.247,0 2.259,1.012 2.259,2.26 C 2.259,-1.012 1.247,0 0,0"
         style="fill:#fd6440;fill-opacity:1;fill-rule:nonzero;stroke:none"
         id="muedsxmtde"
          />
    </g>
    <g
       id="gjobimjloa"
       transform="matrix(0.6945688,0,0,-0.6945688,67.583243,101.58525)">
      <path
         d="m 0,0 c -1.248,0 -2.26,-1.012 -2.26,-2.26 0,-1.247 1.012,-2.259 2.26,-2.259 1.247,0 2.259,1.012 2.259,2.259 C 2.259,-1.012 1.247,0 0,0"
         style="fill:#fd6440;fill-opacity:1;fill-rule:nonzero;stroke:none"
         id="pocefkqsmd"
          />
    </g>
    <g
       id="elzndogiuq"
       transform="matrix(0.6945688,0,0,-0.6945688,67.583243,106.65955)">
      <path
         d="m 0,0 c -1.248,0 -2.26,-1.012 -2.26,-2.26 0,-1.248 1.012,-2.26 2.26,-2.26 1.247,0 2.259,1.012 2.259,2.26 C 2.259,-1.012 1.247,0 0,0"
         style="fill:#fd6440;fill-opacity:1;fill-rule:nonzero;stroke:none"
         id="teycvbfbzy"
          />
    </g>
    <g
       id="cxsrxpgsrx"
       transform="matrix(0.6945688,0,0,-0.6945688,67.583243,111.73382)">
      <path
         d="m 0,0 c -1.248,0 -2.26,-1.012 -2.26,-2.26 0,-1.248 1.012,-2.26 2.26,-2.26 1.247,0 2.259,1.012 2.259,2.26 C 2.259,-1.012 1.247,0 0,0"
         style="fill:#fd6440;fill-opacity:1;fill-rule:nonzero;stroke:none"
         id="wukaonqomt"
          />
    </g>
    <g
       id="nfzcbtjulv"
       transform="matrix(0.6945688,0,0,-0.6945688,67.583243,116.8081)">
      <path
         d="m 0,0 c -1.248,0 -2.26,-1.012 -2.26,-2.26 0,-1.248 1.012,-2.26 2.26,-2.26 1.247,0 2.259,1.012 2.259,2.26 C 2.259,-1.012 1.247,0 0,0"
         style="fill:#fd6440;fill-opacity:1;fill-rule:nonzero;stroke:none"
         id="aymbndnipn"
          />
    </g>
    <g
       id="rkyvmweall"
       transform="matrix(0.6945688,0,0,-0.6945688,67.583243,121.88306)">
      <path
         d="m 0,0 c -1.248,0 -2.26,-1.012 -2.26,-2.259 0,-1.248 1.012,-2.26 2.26,-2.26 1.247,0 2.259,1.012 2.259,2.26 C 2.259,-1.012 1.247,0 0,0"
         style="fill:#fd6440;fill-opacity:1;fill-rule:nonzero;stroke:none"
         id="hkjqzkhlse"
          />
    </g>
    <g
       id="jfpasuennd"
       transform="matrix(0.6945688,0,0,-0.6945688,67.583243,126.95738)">
      <path
         d="m 0,0 c -1.248,0 -2.26,-1.012 -2.26,-2.26 0,-1.248 1.012,-2.259 2.26,-2.259 1.247,0 2.259,1.011 2.259,2.259 C 2.259,-1.012 1.247,0 0,0"
         style="fill:#fd6440;fill-opacity:1;fill-rule:nonzero;stroke:none"
         id="vvlbavpkeh"
          />
    </g>
  </g>
</svg>
