<svg preserveAspectRatio="none" width="388" height="623" viewBox="0 0 388 623" fill="none" xmlns="http://www.w3.org/2000/svg">
<path fill-rule="evenodd" clip-rule="evenodd" d="M192.545 1.857C192.221 2.878 184.297 11.257 174.935 20.477C165.573 29.696 158.045 37.604 158.207 38.048C158.368 38.493 168.273 48.957 180.217 61.303L201.935 83.749L188.717 95.079C159.931 119.755 122.555 159.486 99.891 189.5C57.757 245.3 26.664 308.562 11.668 369C-0.675995 418.753 -2.71899 470.998 6.01401 513.605C11.791 541.79 23.062 572.284 36.469 596C43.331 608.139 53.047 623 54.12 623C55.37 623 97.216 595.13 98.636 593.352C99.26 592.57 100.086 588.574 100.47 584.472C100.855 580.37 101.497 576.811 101.897 576.564C102.296 576.317 107.946 580.367 114.45 585.565C121.904 591.521 126.688 594.705 127.388 594.176C128 593.714 139.75 584.874 153.5 574.532C167.25 564.19 179.065 555.208 179.756 554.572C180.747 553.66 179.618 551.31 174.42 543.458C156.428 516.283 143.389 481.217 137.81 445C135.794 431.916 136.103 388.383 138.311 374.5C147.555 316.364 172.926 259.369 213.268 206.114C225.504 189.96 253.168 158 254.914 158C255.243 158 262.26 171.264 270.506 187.476C278.753 203.689 285.939 216.964 286.476 216.976C287.013 216.989 296.807 210.813 308.241 203.25L329.03 189.5L358.164 101.523C374.188 53.136 387.343 12.878 387.399 12.061C387.485 10.793 374.312 9.809 297.5 5.349C192.926 -0.723999 193.36 -0.709003 192.545 1.857ZM233.673 27.528C244.028 38.268 252.624 47.414 252.775 47.852C252.926 48.291 247.301 53.542 240.275 59.523C224.064 73.321 183.438 113.801 170.045 129.5C120.785 187.241 82.834 255.598 64.397 319.795C54.013 355.949 49.591 386.705 49.631 422.5C49.679 466.922 57.43 504.121 73.73 538.169C79.483 550.188 91.768 571 93.108 571C93.89 571 93.468 573.333 100.131 532.25C103.008 514.513 105.638 500 105.976 500C106.314 500 120.295 511.066 137.045 524.591C153.795 538.116 167.95 549.461 168.5 549.802C169.05 550.143 168.62 549.09 167.544 547.461C145.839 514.6 135.206 487.214 129.317 449C126.604 431.4 126.883 393.389 129.866 374C138.113 320.398 158.527 270.365 193.516 218C211.469 191.131 230.718 168.225 255.921 143.742C270.925 129.165 296.617 107 298.508 107C299.063 107 305.95 120.163 313.812 136.25C323.808 156.701 328.351 165.049 328.915 164C330.018 161.949 376 20.573 376 19.231C376 18.642 373.188 17.887 369.75 17.554C362.199 16.823 221.806 8 217.723 8C215.097 8 216.494 9.71 233.673 27.528Z" fill="rgba(46,204,113,1)"></path>
</svg>